inDegrees=yes
name=ik_lifting_orientations
DataType=double
version=3
OpenSimVersion=4.5-2024-01-10-34fd6af
endheader
time	pelvis_tilt	pelvis_list	pelvis_rotation	pelvis_tx	pelvis_ty	pelvis_tz	hip_flexion_r	hip_adduction_r	hip_rotation_r	knee_angle_r	knee_angle_r_beta	ankle_angle_r	subtalar_angle_r	mtp_angle_r	hip_flexion_l	hip_adduction_l	hip_rotation_l	knee_angle_l	knee_angle_l_beta	ankle_angle_l	subtalar_angle_l	mtp_angle_l	lumbar_extension	lumbar_bending	lumbar_rotation	arm_flex_r	arm_add_r	arm_rot_r	elbow_flex_r	pro_sup_r	wrist_flex_r	wrist_dev_r	arm_flex_l	arm_add_l	arm_rot_l	elbow_flex_l	pro_sup_l	wrist_flex_l	wrist_dev_l
0.86	-1.131498355339914	-2.059283826674821	-95.18577928213318	0	0.9399999998679526	0	45.00883287768318	-10.21251203813021	0	60.01366019735153	1.047435966616854	-5.055461397848733	0	0	45.00883287768318	-10.21251203813021	0	60.01366019735153	1.047435966616854	-5.055461397848733	0	0	-17.98281110170581	-0.02832022460606345	8.23122389197639	11.3562019970237	-0.05666320528810689	3.43983241368681	5.317711339369017	1.800258574963372	0	0	0	-11.17085453274994	0	88.23635877051916	1.800258574963372	0	0
0.87	-1.342749658321623	-2.911181655988824	-93.78600005220542	0	0.9399999998679526	0	45.00883024271845	-10.21229375315369	0	60.01365699574723	1.047435910738318	-5.055387307099838	0	0	45.00883024271845	-10.21229375315369	0	60.01365699574723	1.047435910738318	-5.055387307099838	0	0	-19.84498074214629	0.5815343872579665	6.811611561586153	12.03121018425274	-0.2423068303250009	3.761956833980548	5.740106855115519	1.799883123679678	0	0	0	-11.17144484623391	0	88.23672654360362	1.799883123679678	0	0
0.88	-1.603792181156522	-3.829570891030362	-92.85173422350657	0	0.9399999998679526	0	45.0088269067822	-10.212017575265	0	60.01365294258348	1.047435839997265	-5.055293594531999	0	0	45.0088269067822	-10.212017575265	0	60.01365294258348	1.047435839997265	-5.055293594531999	0	0	-21.77206538676768	1.18617794437625	5.716920083232097	12.80731202236636	-0.4497413896587167	4.283823162150993	6.052797295535273	1.799407765050892	0	0	0	-11.17219226178702	0	88.23719218087247	1.799407765050892	0	0
0.89	-1.846757447963858	-4.664477897857068	-92.05046457309146	0	0.9399999998679526	0	45.00881654926562	-10.21115981272408	0	60.0136404188832	1.047435621417461	-5.055002936986415	0	0	45.00881654926562	-10.21115981272408	0	60.0136404188832	1.047435621417461	-5.055002936986415	0	0	-23.65161592465113	1.838542383827453	4.594255600412879	13.54752044926335	-0.6367060145552093	4.955283056867201	6.585641529359463	1.797934001860754	0	0	0	-11.17450601474394	0	88.23863580458081	1.797934001860754	0	0
0.9	-2.128618576562091	-5.498176443418131	-91.56550900247095	0	0.9399999998679526	0	45.0088129926388	-10.21086868521937	0	60.01363606894292	1.047435545496681	-5.054904444185931	0	0	45.0088129926388	-10.21086868521937	0	60.01363606894292	1.047435545496681	-5.054904444185931	0	0	-25.57384010902824	2.408585344570719	3.865477229850201	14.47489848658309	-0.766261664748919	5.516414398357272	6.851695443058451	1.797425732774777	0	0	0	-11.1753070507381	0	88.23913367938664	1.797425732774777	0	0
0.91	-2.408168722180611	-6.342998101988427	-91.15596879584655	0	0.9399999998679526	0	45.00880961637107	-10.21059303633619	0	60.01363193405518	1.047435473329275	-5.054811255892126	0	0	45.00880961637107	-10.21059303633619	0	60.01363193405518	1.047435473329275	-5.054811255892126	0	0	-27.52266140997968	2.987665072380119	3.236276599276647	15.44121428824393	-0.9327922812787554	6.12249993685471	7.111788529933435	1.796942944649196	0	0	0	-11.17606829569472	0	88.23960659434998	1.796942944649196	0	0
0.92	-2.72421096434056	-7.223103092189161	-90.85758647167592	0	0.9399999998679526	0	45.00880640497338	-10.21032837415752	0	60.01362803423589	1.047435405264588	-5.054721649331294	0	0	45.00880640497338	-10.21032837415752	0	60.01362803423589	1.047435405264588	-5.054721649331294	0	0	-29.65035119901496	3.538542320724963	2.984940383329646	16.51275464401	-1.133307200151942	6.501497612875156	7.327822164867057	1.796485186273356	0	0	0	-11.17678810612037	0	88.24005499131908	1.796485186273356	0	0
0.93	-3.078871714868128	-8.210013036134338	-90.54718812112507	0	0.9399999998679526	0	45.00880305882927	-10.21005516709255	0	60.01362394186904	1.047435333839313	-5.05462932532414	0	0	45.00880305882927	-10.21005516709255	0	60.01362394186904	1.047435333839313	-5.05462932532414	0	0	-31.94636345234385	4.178282837416861	2.589831250451589	17.73585936330875	-1.270010121564524	7.006013391908174	7.425594136529881	1.79600688077482	0	0	0	-11.17754200797541	0	88.24052351531535	1.79600688077482	0	0
0.9399999999999999	-3.415728312699221	-9.18521252096715	-90.23221169756728	0	0.9399999998679526	0	45.00880030648973	-10.20983497889397	0	60.01362052279989	1.047435274165299	-5.054555218247038	0	0	45.00880030648973	-10.20983497889397	0	60.01362052279989	1.047435274165299	-5.054555218247038	0	0	-34.09210321987751	4.897109547131945	2.044652809900699	18.79743139495257	-1.459914081884724	7.683370193710117	7.65459818192051	1.795611034451335	0	0	0	-11.17816915563523	0	88.24091126663907	1.795611034451335	0	0
0.95	-3.802965527846059	-10.13929716093044	-90.23386550553444	0	0.9399999998679526	0	45.00879634295438	-10.20951131372539	0	60.01361568085342	1.047435189657391	-5.054445876111373	0	0	45.00879634295438	-10.20951131372539	0	60.01361568085342	1.047435189657391	-5.054445876111373	0	0	-36.24839612156985	5.473118708908322	1.798573119835324	19.90399108081462	-1.563497182076282	8.460536479996124	7.70498380412074	1.795044643486019	0	0	0	-11.17906164519221	0	88.24146607471617	1.795044643486019	0	0
0.96	-4.194291230579237	-10.96717643835919	-90.31075467526846	0	0.9399999998679526	0	45.00879238765038	-10.20919035756431	0	60.01361082775451	1.047435104954836	-5.054337602961996	0	0	45.00879238765038	-10.20919035756431	0	60.01361082775451	1.047435104954836	-5.054337602961996	0	0	-38.29750372034705	6.025949622516515	1.705517982857928	21.12926738919104	-1.614345760904047	9.152857210656085	7.68753789586637	1.794478416727833	0	0	0	-11.17995520353607	0	88.24202072202338	1.794478416727833	0	0
0.97	-4.573985559561853	-11.80470970698857	-90.38743551417136	0	0.9399999998679526	0	45.0087892462715	-10.20893255397803	0	60.0136070133848	1.047435038381525	-5.054250486363026	0	0	45.0087892462715	-10.20893255397803	0	60.0136070133848	1.047435038381525	-5.054250486363026	0	0	-40.26832529144807	6.635986214000082	1.32808332121153	22.17361578453058	-1.655137995344139	10.007830720167	7.72620900829584	1.794030461659843	0	0	0	-11.18065973085664	0	88.2424595161868	1.794030461659843	0	0
0.98	-4.995932555825505	-12.66278095350057	-90.50889029393072	0	0.9399999998679526	0	45.0087861165202	-10.20867654264706	0	60.01360320558836	1.04743497192294	-5.054164047154431	0	0	45.0087861165202	-10.20867654264706	0	60.01360320558836	1.04743497192294	-5.054164047154431	0	0	-42.35532682502006	7.22297988702255	1.146544380171308	23.37786296138356	-1.703316670860662	10.72408883096261	7.677115000442804	1.793583787127091	0	0	0	-11.18136272877203	0	88.24289705603225	1.793583787127091	0	0
0.99	-5.511040591667104	-13.6885422252522	-90.78668771014148	0	0.9399999998679526	0	45.00878262535243	-10.20839008513595	0	60.01359897119251	1.047434898018791	-5.05406729074742	0	0	45.00878262535243	-10.20839008513595	0	60.01359897119251	1.047434898018791	-5.05406729074742	0	0	-44.68979330723813	7.781067731992831	1.215550041569718	24.50779376669969	-1.786954666029378	11.32008480422737	7.77650187352054	1.79308608607347	0	0	0	-11.18214527717826	0	88.2433845788433	1.79308608607347	0	0
